Coordinates
version=1
nRows=5
nColumns=42
inDegrees=yes

Units are S.I. units (second, meters, Newtons, ...)
If the header above contains a line with 'inDegrees', this indicates whether rotational values are in degrees (yes) or radians (no).

endheader
time	pelvis_tilt	pelvis_list	pelvis_rotation	pelvis_tx	pelvis_ty	pelvis_tz	hip_flexion_r	hip_adduction_r	hip_rotation_r	knee_angle_r	knee_angle_r_beta	ankle_angle_r	subtalar_angle_r	mtp_angle_r	hip_flexion_l	hip_adduction_l	hip_rotation_l	knee_angle_l	knee_angle_l_beta	ankle_angle_l	subtalar_angle_l	mtp_angle_l	lumbar_extension	lumbar_bending	lumbar_rotation	sh_tx_r	sh_ty_r	sh_tz_r	sh_plane_elev_r	sh_elev_r	sh_axial_rot_r	elbow_flex_r	pro_sup_r	sh_tx_l	sh_ty_l	sh_tz_l	sh_plane_elev_l	sh_elev_l	sh_axial_rot_l	elbow_flex_l	pro_sup_l
      3.81666670	     -6.45445073	     -1.69404213	      1.57409867	      0.34151788	      0.93469706	     -0.07994698	      5.79386319	     -5.82279650	     -3.18160919	      1.43313770	      0.02501297	      3.29930048	      7.74211287	     -7.49999987	      3.47319658	     -3.71458625	     -9.19599912	      0.46543012	      0.00812329	     12.34866868	      7.98862007	     -7.49999987	      2.74262428	     -6.73697709	     -6.87639921	     -0.00066822	     -0.01390106	     -0.00767017	     -5.59308340	    142.53765442	    -11.03612525	     12.22519843	     15.68075231	      0.00197169	      0.00536749	     -0.00657135	     37.31822872	      8.90222888	     -1.66754852	     13.53412351	     49.46866686
      3.83333330	     -6.41192081	     -1.69545151	      1.49923232	      0.34162189	      0.93426076	     -0.07969862	      5.77191687	     -5.80816354	     -3.22726015	      1.37497022	      0.02399776	      3.24458470	      7.96507023	     -7.49999987	      3.43176983	     -3.72479572	     -9.45490262	      0.46590182	      0.00813152	     12.42525073	      8.40119482	     -7.49999987	      2.27857969	     -6.85574818	     -5.57497632	     -0.00376999	     -0.01437697	     -0.00774288	     -7.29905229	    140.70364008	    -11.01865847	     11.93852504	     12.97024751	      0.00103536	      0.00545467	     -0.00666037	     45.72454613	      9.90401768	     -2.89294489	     12.37165371	     42.05647750
      3.85000000	     -6.46638681	     -1.70580358	      1.53162172	      0.34151296	      0.93158218	     -0.07990481	      5.87184146	     -5.81789492	     -3.30002721	      1.42286966	      0.02483376	      3.15029803	      7.86079570	     -7.49999987	      3.50436976	     -3.72551917	     -9.35897777	      0.47331499	      0.00826090	     12.52328319	      8.41433642	     -7.49999987	      2.22113012	     -6.90129772	     -5.61860994	     -0.00247160	     -0.01429455	     -0.00780124	     -7.60250860	    139.29208958	    -10.99198301	     11.58004151	     12.99366534	      0.00061231	      0.00520071	     -0.00672393	     45.69000477	      9.99335451	     -2.90873061	     12.43676023	     42.07114483
      3.86666670	     -6.48127930	     -1.71290469	      1.52004584	      0.34180476	      0.93424722	     -0.07965988	      5.92709949	     -5.79468693	     -3.30959092	      1.47561474	      0.02575434	      3.02005305	      7.75678430	     -7.49999987	      3.51171737	     -3.74690123	     -9.27991006	      0.45921688	      0.00801485	     12.42471962	      8.37834194	     -7.49999987	      2.21413507	     -6.93183349	     -5.32937959	     -0.00011881	     -0.01413667	     -0.00783418	     -8.72286138	    137.71575603	    -11.16685218	     11.68038173	     14.25812218	      0.00253189	      0.00537872	     -0.00679314	     45.17751596	      9.84700053	     -3.16444694	     12.51539990	     42.42641672
      3.88333330	     -6.44573980	     -1.70361237	      1.48868840	      0.34153902	      0.93174721	     -0.07972985	      5.97946582	     -5.81100779	     -3.28397421	      1.62337829	      0.02833330	      3.15618145	      7.75343788	     -7.49999987	      3.46323759	     -3.73669329	     -9.22413195	      0.46513230	      0.00811809	     12.60120337	      8.37914796	     -7.49999987	      2.03411270	     -7.11727838	     -5.07258022	     -0.00047019	     -0.01340376	     -0.00782781	     -8.92037834	    135.74081967	    -11.11460631	     10.96947336	     14.03886639	      0.00306670	      0.00631794	     -0.00698171	     45.28598855	      9.95826598	     -3.10289829	     12.63332057	     42.46369777
